<svg version="1.2" baseProfile="tiny-ps" xmlns="http://www.w3.org/2000/svg" viewBox="0 0 36 36" width="36" height="36">
	<title>ФУТЕР</title>
	<style>
		tspan { white-space:pre }
		.shp0 { fill: #00a0e3 } 
		.shp1 { fill: #ffffff } 
	</style>
	<g id="ФУТЕР">
		<g id="Группа 7">
			<path id="Эллипс 4" class="shp0" d="M18 0C27.94 0 36 8.06 36 18C36 27.94 27.94 36 18 36C8.06 36 0 27.94 0 18C0 8.06 8.06 0 18 0Z" />
			<path id="Фигура 5" class="shp1" d="M21.68 18.01L19.27 18.01L19.27 27L15.7 27L15.7 18.01L14 18.01L14 14.83L15.7 14.83L15.7 12.78C15.7 11.31 16.36 9.01 19.3 9.01L21.95 9.02L21.95 12.1L20.03 12.1C19.71 12.1 19.27 12.27 19.27 12.97L19.27 14.84L21.99 14.84L21.68 18.01ZM21.68 18.01" />
		</g>
	</g>
</svg>