<svg version="1.2" baseProfile="tiny-ps" xmlns="http://www.w3.org/2000/svg" viewBox="0 0 36 36" width="36" height="36">
	<title>ФУТЕР</title>
	<style>
		tspan { white-space:pre }
		.shp0 { fill: #00a0e3 } 
		.shp1 { fill: #ffffff } 
	</style>
	<g id="ФУТЕР">
		<g id="Группа 7">
			<path id="Эллипс 4 копия 2" class="shp0" d="M18 0C27.94 0 36 8.06 36 18C36 27.94 27.94 36 18 36C8.06 36 0 27.94 0 18C0 8.06 8.06 0 18 0Z" />
			<path id="Фигура 3" class="shp1" d="M18.01 7.99C19.36 8.02 20.7 8.03 22.04 8.07C23.21 8.1 24.34 8.31 25.35 8.93C26.68 9.73 27.49 10.93 27.75 12.44C27.91 13.35 27.96 14.28 27.98 15.2C28.01 17.19 27.99 19.17 27.97 21.16C27.96 22.2 27.93 23.24 27.58 24.24C26.91 26.18 25.55 27.36 23.55 27.74C22.64 27.91 21.71 27.95 20.78 27.97C18.8 28 16.83 27.99 14.85 27.96C13.81 27.95 12.76 27.92 11.76 27.58C9.81 26.91 8.63 25.55 8.24 23.55C8.07 22.65 8.03 21.72 8.02 20.79C7.99 18.81 8 16.83 8.02 14.84C8.03 13.8 8.07 12.76 8.41 11.76C9.08 9.82 10.45 8.64 12.45 8.26C13.35 8.09 14.29 8.07 15.21 8.03C16.14 7.99 17.08 8.02 18.01 8.02C18.01 8.01 18.01 8 18.01 7.99ZM26.22 17.84C26.21 17.84 26.2 17.84 26.18 17.84C26.18 17.05 26.2 16.26 26.18 15.48C26.16 14.72 26.13 13.96 26.05 13.21C25.88 11.52 24.88 10.35 23.21 10.04C22.34 9.87 21.43 9.85 20.53 9.83C18.84 9.8 17.15 9.8 15.45 9.83C14.61 9.84 13.76 9.87 12.92 10C11.48 10.23 10.49 11.05 10.09 12.49C9.96 12.95 9.89 13.43 9.88 13.91C9.83 15.72 9.81 17.52 9.81 19.33C9.82 20.48 9.84 21.64 9.94 22.78C10.09 24.5 11.14 25.67 12.83 25.98C13.7 26.13 14.6 26.15 15.49 26.17C17.16 26.2 18.83 26.19 20.51 26.17C21.27 26.16 22.04 26.12 22.8 26.05C23.51 25.97 24.18 25.74 24.75 25.29C25.68 24.55 26.04 23.54 26.09 22.41C26.17 20.89 26.18 19.36 26.22 17.84ZM23.13 18C23.13 20.85 20.84 23.13 17.99 23.13C15.13 23.13 12.86 20.84 12.86 17.95C12.86 15.13 15.17 12.87 18.05 12.87C20.85 12.87 23.13 15.17 23.13 18ZM17.99 21.33C19.82 21.33 21.32 19.83 21.33 18C21.33 16.18 19.82 14.67 18 14.67C16.17 14.67 14.67 16.17 14.67 18C14.66 19.82 16.17 21.32 17.99 21.33ZM24.53 12.67C24.53 13.34 23.99 13.88 23.33 13.88C22.67 13.87 22.12 13.32 22.12 12.66C22.13 12 22.66 11.48 23.32 11.47C24.01 11.47 24.53 11.99 24.53 12.67Z" />
		</g>
	</g>
</svg>