<svg version="1.2" baseProfile="tiny-ps" xmlns="http://www.w3.org/2000/svg" viewBox="0 0 36 36" width="36" height="36">
	<title>ФУТЕР</title>
	<style>
		tspan { white-space:pre }
		.shp0 { fill: #00a0e3 } 
		.shp1 { fill: #ffffff } 
	</style>
	<g id="ФУТЕР">
		<g id="Группа 7">
			<path id="Эллипс 4 копия" class="shp0" d="M18 0C27.94 0 36 8.06 36 18C36 27.94 27.94 36 18 36C8.06 36 0 27.94 0 18C0 8.06 8.06 0 18 0Z" />
			<path id="Фигура 4" class="shp1" d="M30 10.25C29.15 10.63 28.24 10.89 27.29 11C28.26 10.41 29.01 9.47 29.36 8.35C28.45 8.9 27.44 9.3 26.36 9.51C25.5 8.58 24.28 8 22.92 8C20.31 8 18.2 10.15 18.2 12.8C18.2 13.17 18.24 13.54 18.32 13.89C14.4 13.69 10.92 11.78 8.59 8.88C8.19 9.58 7.95 10.41 7.95 11.29C7.95 12.95 8.79 14.42 10.05 15.28C9.28 15.26 8.55 15.04 7.92 14.68C7.92 14.7 7.92 14.72 7.92 14.74C7.92 17.07 9.54 19 11.7 19.44C11.31 19.55 10.89 19.61 10.46 19.61C10.15 19.61 9.86 19.58 9.57 19.53C10.17 21.43 11.91 22.82 13.98 22.86C12.36 24.15 10.33 24.91 8.12 24.91C7.74 24.91 7.36 24.89 6.99 24.85C9.08 26.21 11.56 27 14.23 27C22.91 27 27.66 19.69 27.66 13.35C27.66 13.14 27.65 12.94 27.64 12.73C28.56 12.05 29.36 11.21 30 10.25L30 10.25ZM30 10.25" />
		</g>
	</g>
</svg>