<svg version="1.2" baseProfile="tiny-ps" xmlns="http://www.w3.org/2000/svg" viewBox="0 0 200 19" width="200" height="19">
	<title>ХИДЕР</title>
	<style>
		tspan { white-space:pre }
		.shp0 { fill: #313131 } 
	</style>
	<g id="ХИДЕР">
		<g id="Группа 1">
			<path id="Fin expert" class="shp0" d="M4.1 11.22L16.38 11.22L16.38 7.54L4.1 7.54L4.1 3.84L17.4 3.84L17.4 0.17L0 0.17L0 18.54L4.1 18.54L4.1 11.22ZM25.75 0.17L21.65 0.17L21.65 18.54L25.75 18.54L25.75 0.17ZM49.28 0.17L45.2 0.17L45.2 12.4L34.98 0.17L30.88 0.17L30.88 18.54L34.98 18.54L34.98 6.28L45.2 18.54L49.28 18.54L49.28 0.17ZM85.72 14.87L72.42 14.87L72.42 11.22L84.7 11.22L84.7 7.54L72.42 7.54L72.42 3.84L85.72 3.84L85.72 0.17L68.32 0.17L68.32 18.54L85.72 18.54L85.72 14.87ZM94.36 14.87L98.43 11.22L100.49 11.22L104.59 14.87L104.59 18.54L108.66 18.54L108.66 13.06L104.59 9.38L108.66 5.71L108.66 0.17L104.59 0.17L104.59 3.87L100.49 7.54L98.43 7.54L94.36 3.87L94.36 0.17L90.26 0.17L90.26 5.71L94.36 9.38L90.26 13.06L90.26 18.54L94.36 18.54L94.36 14.87ZM117.59 3.84L127.82 3.84L127.82 9.38L117.59 9.38L117.59 3.84ZM117.59 13.06L129.87 13.06L131.89 11.22L131.89 2.03L129.87 0.17L113.49 0.17L113.49 18.54L117.59 18.54L117.59 13.06ZM154.12 14.87L140.82 14.87L140.82 11.22L153.1 11.22L153.1 7.54L140.82 7.54L140.82 3.84L154.12 3.84L154.12 0.17L136.72 0.17L136.72 18.54L154.12 18.54L154.12 14.87ZM163.06 3.84L173.28 3.84L173.28 9.38L163.06 9.38L163.06 3.84ZM177.36 14.87L175.33 13.06L177.36 11.22L177.36 2.03L175.33 0.17L158.96 0.17L158.96 18.54L163.06 18.54L163.06 13.06L169.18 13.06L171.23 14.87L173.28 16.73L173.28 18.54L177.36 18.54L177.36 14.87ZM192.88 3.84L200 3.84L200 0.17L181.6 0.17L181.6 3.84L188.78 3.84L188.78 18.54L192.88 18.54L192.88 3.84Z" />
		</g>
	</g>
</svg>