<svg version="1.2" baseProfile="tiny-ps" xmlns="http://www.w3.org/2000/svg" viewBox="0 0 200 69" width="200" height="69">
	<title>ФУТЕР</title>
	<style>
		tspan { white-space:pre }
		.txt0 { font-size: 40px;fill: #ffb08d;font-weight: 400;font-family: "Days", "Days" } 
		.txt1 { font-size: 35px;fill: #313131;font-weight: bold;font-family: "Gosha Sans" } 
		.shp2 { fill: #313131 } 
	</style>
	<g id="ФУТЕР">
		<g id="Группа 1">
			<text id="Учебный центр" style="transform: matrix(0.398,0,0,0.391,-0.099,15.064)" >
				<tspan x="0" y="0" class="txt0">Учебный центр</tspan>
			</text>
			<text id="Бухгалтерия и финансы" style="transform: matrix(0.395,0,0,0.388,-0.894,69)" >
				<tspan x="0" y="0" class="txt1" dx="0 2 2 2 2 2 2 2 2 2 2 2 2 2 2 2 2 2 2 2 2" >Бухгалтерия и финансы</tspan>
			</text>
			<path id="Fin expert" class="shp2" d="M4.1 42.22L16.38 42.22L16.38 38.54L4.1 38.54L4.1 34.84L17.4 34.84L17.4 31.17L0 31.17L0 49.54L4.1 49.54L4.1 42.22ZM25.75 31.17L21.65 31.17L21.65 49.54L25.75 49.54L25.75 31.17ZM49.28 31.17L45.2 31.17L45.2 43.4L34.98 31.17L30.88 31.17L30.88 49.54L34.98 49.54L34.98 37.28L45.2 49.54L49.28 49.54L49.28 31.17ZM85.72 45.87L72.42 45.87L72.42 42.22L84.7 42.22L84.7 38.54L72.42 38.54L72.42 34.84L85.72 34.84L85.72 31.17L68.32 31.17L68.32 49.54L85.72 49.54L85.72 45.87ZM94.36 45.87L98.43 42.22L100.49 42.22L104.59 45.87L104.59 49.54L108.66 49.54L108.66 44.06L104.59 40.38L108.66 36.71L108.66 31.17L104.59 31.17L104.59 34.87L100.49 38.54L98.43 38.54L94.36 34.87L94.36 31.17L90.26 31.17L90.26 36.71L94.36 40.38L90.26 44.06L90.26 49.54L94.36 49.54L94.36 45.87ZM117.59 34.84L127.82 34.84L127.82 40.38L117.59 40.38L117.59 34.84ZM117.59 44.06L129.87 44.06L131.89 42.22L131.89 33.03L129.87 31.17L113.49 31.17L113.49 49.54L117.59 49.54L117.59 44.06ZM154.12 45.87L140.82 45.87L140.82 42.22L153.1 42.22L153.1 38.54L140.82 38.54L140.82 34.84L154.12 34.84L154.12 31.17L136.72 31.17L136.72 49.54L154.12 49.54L154.12 45.87ZM163.06 34.84L173.28 34.84L173.28 40.38L163.06 40.38L163.06 34.84ZM177.36 45.87L175.33 44.06L177.36 42.22L177.36 33.03L175.33 31.17L158.96 31.17L158.96 49.54L163.06 49.54L163.06 44.06L169.18 44.06L171.23 45.87L173.28 47.73L173.28 49.54L177.36 49.54L177.36 45.87ZM192.88 34.84L200 34.84L200 31.17L181.6 31.17L181.6 34.84L188.78 34.84L188.78 49.54L192.88 49.54L192.88 34.84Z" />
		</g>
	</g>
</svg>