<svg version="1.2" baseProfile="tiny-ps" xmlns="http://www.w3.org/2000/svg" viewBox="0 0 80 80" width="80" height="80">
	<title>Пункты</title>
	<style>
		tspan { white-space:pre }
		.shp0 { fill: #00a0e3 } 
		.shp1 { fill: #ffffff } 
	</style>
	<g id="Пункты">
		<g id="1">
			<path id="Эллипс 3" class="shp0" d="M40 0C62.09 0 80 17.91 80 40C80 62.09 62.09 80 40 80C17.91 80 0 62.09 0 40C0 17.91 17.91 0 40 0Z" />
			<path id="Фигура 45" class="shp1" d="M27.05 31.25C27.05 26.88 30.63 23.33 35.03 23.33L50.39 23.33C49.84 21.41 48.08 20 45.97 20L26.62 20C24.07 20 22 22.05 22 24.58L22 50.42C22 52.94 24.07 55 26.62 55L27.05 55L27.05 31.25ZM54.38 26.67L35.03 26.67C32.48 26.67 30.41 28.72 30.41 31.25L30.41 55.42C30.41 57.94 32.48 60 35.03 60L54.38 60C56.93 60 59 57.94 59 55.42L59 31.25C59 28.72 56.93 26.67 54.38 26.67ZM51.01 55L38.4 55C37.7 55 37.14 54.44 37.14 53.75C37.14 53.06 37.7 52.5 38.4 52.5L51.01 52.5C51.71 52.5 52.27 53.06 52.27 53.75C52.27 54.44 51.71 55 51.01 55ZM51.01 48.33L38.4 48.33C37.7 48.33 37.14 47.77 37.14 47.08C37.14 46.39 37.7 45.83 38.4 45.83L51.01 45.83C51.71 45.83 52.27 46.39 52.27 47.08C52.27 47.77 51.71 48.33 51.01 48.33ZM51.01 42.5L38.4 42.5C37.7 42.5 37.14 41.94 37.14 41.25C37.14 40.56 37.7 40 38.4 40L51.01 40C51.71 40 52.27 40.56 52.27 41.25C52.27 41.94 51.71 42.5 51.01 42.5ZM51.01 35.83L38.4 35.83C37.7 35.83 37.14 35.27 37.14 34.58C37.14 33.89 37.7 33.33 38.4 33.33L51.01 33.33C51.71 33.33 52.27 33.89 52.27 34.58C52.27 35.27 51.71 35.83 51.01 35.83Z" />
		</g>
	</g>
</svg>