<svg version="1.2" baseProfile="tiny-ps" xmlns="http://www.w3.org/2000/svg" viewBox="0 0 80 80" width="80" height="80">
	<title>Пункты</title>
	<style>
		tspan { white-space:pre }
		.shp0 { fill: #00a0e3 } 
		.shp1 { fill: #ffffff } 
	</style>
	<g id="Пункты">
		<g id="2">
			<path id="Эллипс 3 копия" class="shp0" d="M40 0C62.09 0 80 17.91 80 40C80 62.09 62.09 80 40 80C17.91 80 0 62.09 0 40C0 17.91 17.91 0 40 0Z" />
			<path id="Фигура 41" class="shp1" d="M41.16 43.99L41.16 47.06L52.75 47.06L52.75 46.03C52.75 44.43 52.13 42.89 51.01 41.76C49.9 40.63 48.39 40 46.81 40L45.09 40C44.64 41.98 43.11 43.53 41.16 43.99L41.16 43.99ZM38.84 43.99C36.89 43.53 35.36 41.98 34.91 40L33.19 40C31.61 40 30.1 40.63 28.99 41.76C27.87 42.89 27.25 44.43 27.25 46.03L27.25 47.06L38.84 47.06L38.84 43.99ZM40 41.76C41.6 41.76 42.9 40.45 42.9 38.82L42.9 38.28C42 38.63 41.02 38.82 40 38.82C38.98 38.82 38 38.63 37.1 38.28L37.1 38.82C37.1 40.45 38.4 41.76 40 41.76ZM40 36.47C43.2 36.47 45.8 33.84 45.8 30.59L45.8 27.06C41.93 27.06 38.08 27.06 34.2 27.06L34.2 30.59C34.2 33.84 36.8 36.47 40 36.47ZM35.05 24.71L45.8 24.71L45.8 24.39C45.8 21.97 43.86 20 41.47 20L30.73 20L30.73 20.31C30.73 22.74 32.66 24.71 35.05 24.71ZM24 49.41C24.24 50.49 26.02 58.64 26.32 60L53.68 60C53.97 58.67 55.76 50.52 56 49.41L24 49.41ZM41.16 56.47L38.84 56.47L38.84 54.12L41.16 54.12L41.16 56.47Z" />
		</g>
	</g>
</svg>