<svg version="1.2" baseProfile="tiny-ps" xmlns="http://www.w3.org/2000/svg" viewBox="0 0 80 80" width="80" height="80">
	<title>Пункты</title>
	<style>
		tspan { white-space:pre }
		.shp0 { fill: #00a0e3 } 
		.shp1 { fill: #ffffff } 
	</style>
	<g id="Пункты">
		<g id="3">
			<path id="Эллипс 3 копия 2" class="shp0" d="M40 0C62.09 0 80 17.91 80 40C80 62.09 62.09 80 40 80C17.91 80 0 62.09 0 40C0 17.91 17.91 0 40 0Z" />
			<path id="Фигура 42" class="shp1" d="M52.55 27.43C48.71 27.43 45.54 30.35 45.15 34.08C47.93 35.81 49.79 38.9 49.79 42.42L49.79 47.44C49.79 49.27 48.97 50.96 47.61 52.08L47.61 58.83C47.61 59.47 48.14 60 48.79 60L56.32 60C56.96 60 57.49 59.47 57.49 58.83L57.49 47.16C58.95 46.67 60 45.29 60 43.67L60 34.88C60 30.77 56.66 27.43 52.55 27.43L52.55 27.43ZM52.55 27.43C54.61 27.43 56.28 25.75 56.28 23.7C56.09 18.76 49.01 18.76 48.83 23.7C48.83 25.75 50.5 27.43 52.55 27.43ZM43.72 31.24C43.72 29.18 42.05 27.51 40 27.51C35.07 27.7 35.07 34.78 40 34.96C42.05 34.96 43.72 33.29 43.72 31.24L43.72 31.24ZM40 34.96C36.16 34.96 32.99 37.88 32.59 41.62C35.38 43.35 37.24 46.44 37.24 49.95L37.24 51.21C37.24 53.04 36.41 54.73 35.06 55.85L35.06 58.83C35.06 59.47 35.59 60 36.23 60L43.77 60C44.41 60 44.94 59.47 44.94 58.83L44.94 50.93C46.4 50.44 47.45 49.06 47.45 47.44L47.45 42.42C47.45 38.31 44.11 34.96 40 34.96L40 34.96ZM27.45 42.5C23.33 42.5 20 45.84 20 49.95L20 51.21C20 52.83 21.05 54.21 22.51 54.7L22.51 58.83C22.51 59.47 23.04 60 23.68 60L31.21 60C31.86 60 32.39 59.47 32.39 58.83L32.39 54.7C33.84 54.21 34.9 52.83 34.9 51.21L34.9 49.95C34.9 45.83 31.56 42.5 27.45 42.5ZM27.45 42.5C29.5 42.5 31.17 40.83 31.17 38.77C30.98 33.84 23.91 33.84 23.72 38.77C23.72 40.83 25.39 42.5 27.45 42.5L27.45 42.5Z" />
		</g>
	</g>
</svg>