<svg version="1.2" baseProfile="tiny-ps" xmlns="http://www.w3.org/2000/svg" viewBox="0 0 80 80" width="80" height="80">
	<title>Пункты</title>
	<style>
		tspan { white-space:pre }
		.shp0 { fill: #00a0e3 } 
		.shp1 { fill: #ffffff } 
	</style>
	<g id="Пункты">
		<g id="4">
			<path id="Эллипс 3 копия 3" class="shp0" d="M40 0C62.09 0 80 17.91 80 40C80 62.09 62.09 80 40 80C17.91 80 0 62.09 0 40C0 17.91 17.91 0 40 0Z" />
			<path id="Фигура 43" class="shp1" d="M22.71 50.57L22.71 57.25C22.71 57.66 23.03 58 23.43 58L28.45 58C28.84 58 29.17 57.67 29.17 57.25L29.17 45.5L25.53 49.25C24.76 50.04 23.77 50.5 22.71 50.57ZM31.67 45.42L31.67 57.25C31.67 57.66 31.99 58 32.39 58L37.41 58C37.8 58 38.13 57.67 38.13 57.25L38.13 50.29C36.99 50.26 35.92 49.8 35.11 48.97L31.67 45.42ZM40.63 49.55L40.63 57.25C40.63 57.66 40.95 58 41.35 58L46.36 58C46.76 58 47.09 57.67 47.09 57.25L47.09 43.04L41.34 48.96C41.12 49.19 40.88 49.38 40.63 49.55ZM55.56 34.3L49.58 40.46L49.58 57.25C49.58 57.66 49.9 58 50.31 58L55.32 58C55.71 58 56.04 57.67 56.04 57.25L56.04 34.77C55.88 34.62 55.76 34.5 55.67 34.41L55.56 34.3ZM59.66 23.4C59.42 23.14 59.06 23 58.6 23C58.56 23 58.51 23 58.47 23C56.13 23.11 53.81 23.23 51.47 23.34C51.16 23.36 50.73 23.37 50.4 23.72C50.29 23.83 50.21 23.96 50.14 24.11C49.8 24.88 50.28 25.38 50.51 25.62L51.1 26.23C51.5 26.65 51.91 27.07 52.32 27.49L38.22 42.02L31.88 35.5C31.5 35.11 31 34.89 30.45 34.89C29.91 34.89 29.41 35.11 29.03 35.5L20.59 44.18C19.8 45 19.8 46.31 20.59 47.12L20.97 47.51C21.35 47.9 21.86 48.12 22.4 48.12C22.94 48.12 23.44 47.9 23.82 47.51L30.45 40.68L36.79 47.21C37.17 47.59 37.68 47.81 38.22 47.81C38.76 47.81 39.26 47.59 39.65 47.21L55.56 30.81L57.36 32.66C57.57 32.88 57.87 33.19 58.32 33.19C58.51 33.19 58.7 33.13 58.89 33.02C59.03 32.95 59.14 32.86 59.24 32.76C59.59 32.4 59.66 31.93 59.68 31.57C59.74 30.01 59.82 28.45 59.89 26.89L60 24.54C60.02 24.05 59.91 23.67 59.66 23.4Z" />
		</g>
	</g>
</svg>