<svg version="1.2" baseProfile="tiny-ps" xmlns="http://www.w3.org/2000/svg" viewBox="0 0 80 80" width="80" height="80">
	<title>Пункты</title>
	<style>
		tspan { white-space:pre }
		.shp0 { fill: #00a0e3 } 
		.shp1 { fill: #ffffff } 
	</style>
	<g id="Пункты">
		<g id="5">
			<path id="Эллипс 3 копия 4" class="shp0" d="M40 0C62.09 0 80 17.91 80 40C80 62.09 62.09 80 40 80C17.91 80 0 62.09 0 40C0 17.91 17.91 0 40 0Z" />
			<path id="Фигура 44" class="shp1" d="M52.15 24.74L51.33 24.74C51.01 23.49 49.91 22.57 48.58 22.57L44.71 22.57C43.89 21.05 42.32 20 40.5 20C38.68 20 37.11 21.05 36.29 22.57L32.42 22.57C31.09 22.57 29.98 23.49 29.67 24.74L28.85 24.74C27.28 24.74 26 26.04 26 27.64L26 57.1C26 58.7 27.28 60 28.85 60L52.15 60C53.72 60 55 58.7 55 57.1L55 27.64C55 26.03 53.72 24.74 52.15 24.74ZM40.5 22.81C41.63 22.81 42.55 23.74 42.55 24.89C42.55 26.04 41.63 26.97 40.5 26.97C39.37 26.97 38.45 26.04 38.45 24.89C38.45 23.74 39.37 22.81 40.5 22.81ZM32.21 50.58C31.42 50.58 30.78 49.93 30.78 49.13C30.78 48.33 31.42 47.68 32.21 47.68C33 47.68 33.64 48.33 33.64 49.13C33.64 49.93 33 50.58 32.21 50.58ZM32.21 43.33C31.42 43.33 30.78 42.69 30.78 41.89C30.78 41.08 31.42 40.44 32.21 40.44C33 40.44 33.64 41.08 33.64 41.89C33.64 42.69 33 43.33 32.21 43.33ZM32.21 36.09C31.42 36.09 30.78 35.44 30.78 34.64C30.78 33.84 31.42 33.19 32.21 33.19C33 33.19 33.64 33.84 33.64 34.64C33.64 35.44 33 36.09 32.21 36.09ZM49.42 50.58L36.9 50.58C36.11 50.58 35.47 49.93 35.47 49.13C35.47 48.33 36.11 47.68 36.9 47.68L49.42 47.68C50.21 47.68 50.85 48.33 50.85 49.13C50.85 49.93 50.21 50.58 49.42 50.58ZM49.42 43.33L36.9 43.33C36.11 43.33 35.47 42.69 35.47 41.89C35.47 41.08 36.11 40.44 36.9 40.44L49.42 40.44C50.21 40.44 50.85 41.08 50.85 41.89C50.85 42.69 50.21 43.33 49.42 43.33ZM49.42 36.09L36.9 36.09C36.11 36.09 35.47 35.44 35.47 34.64C35.47 33.84 36.11 33.19 36.9 33.19L49.42 33.19C50.21 33.19 50.85 33.84 50.85 34.64C50.85 35.44 50.21 36.09 49.42 36.09Z" />
		</g>
	</g>
</svg>