<svg version="1.2" baseProfile="tiny-ps" xmlns="http://www.w3.org/2000/svg" viewBox="0 0 28 28" width="28" height="28">
	<title>БЛОГ</title>
	<style>
		tspan { white-space:pre }
		.shp0 { fill: #00a0e3 } 
		.shp1 { fill: #ffffff } 
	</style>
	<g id="БЛОГ">
		<g id="1">
			<g id="tel">
				<path id="Эллипс 3 копия" class="shp0" d="M14 0C21.73 0 28 6.27 28 14C28 21.73 21.73 28 14 28C6.27 28 0 21.73 0 14C0 6.27 6.27 0 14 0Z" />
				<path id="Фигура 6" class="shp1" d="M14 8C11.24 8 9 10.2 9 12.9C9 16.8 13.46 20.71 13.65 20.87C13.75 20.96 13.88 21 14 21C14.13 21 14.26 20.95 14.36 20.86C14.55 20.69 19 16.56 19 12.9C19 10.2 16.76 8 14 8ZM14 15.24C12.68 15.24 11.61 14.19 11.61 12.9C11.61 11.61 12.68 10.57 14 10.57C15.32 10.57 16.38 11.61 16.38 12.9C16.38 14.19 15.32 15.24 14 15.24Z" />
			</g>
		</g>
	</g>
</svg>