<svg version="1.2" baseProfile="tiny-ps" xmlns="http://www.w3.org/2000/svg" viewBox="0 0 28 28" width="28" height="28">
	<title>БЛОГ</title>
	<style>
		tspan { white-space:pre }
		.shp0 { fill: #00a0e3 } 
		.shp1 { fill: #ffffff } 
	</style>
	<g id="БЛОГ">
		<g id="1">
			<g id="tel">
				<path id="Эллипс 3 копия 2" class="shp0" d="M14 0C21.73 0 28 6.27 28 14C28 21.73 21.73 28 14 28C6.27 28 0 21.73 0 14C0 6.27 6.27 0 14 0Z" />
				<path id="Фигура 7" class="shp1" d="M8.34 12.39C8.52 12.52 9.05 12.89 9.95 13.5C10.84 14.12 11.52 14.6 11.99 14.93C12.04 14.97 12.15 15.05 12.32 15.17C12.49 15.29 12.63 15.39 12.75 15.46C12.86 15.54 12.99 15.62 13.15 15.72C13.31 15.81 13.46 15.88 13.6 15.93C13.74 15.98 13.87 16 13.99 16L14 16L14.01 16C14.13 16 14.26 15.98 14.4 15.93C14.54 15.88 14.69 15.81 14.85 15.72C15.01 15.62 15.14 15.54 15.25 15.46C15.37 15.39 15.51 15.29 15.68 15.17C15.85 15.05 15.96 14.97 16.01 14.93C16.49 14.6 17.71 13.75 19.66 12.39C20.04 12.12 20.36 11.8 20.62 11.43C20.87 11.05 21 10.66 21 10.25C21 9.91 20.88 9.61 20.63 9.37C20.38 9.12 20.09 9 19.75 9L8.25 9C7.85 9 7.54 9.14 7.32 9.41C7.11 9.68 7 10.02 7 10.42C7 10.75 7.14 11.11 7.43 11.49C7.72 11.87 8.02 12.17 8.34 12.39ZM20.22 13.23C18.51 14.38 17.21 15.28 16.33 15.92C16.03 16.14 15.79 16.31 15.61 16.43C15.42 16.56 15.17 16.68 14.87 16.81C14.56 16.94 14.27 17 14.01 17L14 17L13.99 17C13.73 17 13.44 16.94 13.13 16.81C12.83 16.68 12.58 16.56 12.39 16.43C12.21 16.31 11.97 16.14 11.67 15.92C10.97 15.41 9.67 14.51 7.79 13.23C7.49 13.03 7.23 12.8 7 12.55L7 18.75C7 19.09 7.12 19.39 7.37 19.63C7.61 19.88 7.91 20 8.25 20L19.75 20C20.09 20 20.39 19.88 20.63 19.63C20.88 19.39 21 19.09 21 18.75L21 12.55C20.78 12.8 20.52 13.02 20.22 13.23Z" />
			</g>
		</g>
	</g>
</svg>